<?xml version="1.0" encoding="utf-8"?>
<!-- Generator: Adobe Illustrator 28.1.0, SVG Export Plug-In . SVG Version: 6.00 Build 0)  -->
<svg version="1.1" id="图层_1" xmlns="http://www.w3.org/2000/svg" xmlns:xlink="http://www.w3.org/1999/xlink" x="0px" y="0px"
	 viewBox="0 0 1920 1080" style="enable-background:new 0 0 1920 1080;" xml:space="preserve">
<style type="text/css">
	.st0{fill:#343434;}
	.st1{fill:url(#SVGID_1_);}
	.st2{fill:url(#SVGID_00000086684518562823186730000012489235347907427721_);}
	.st3{fill:url(#SVGID_00000023273557638672830290000007121616811819378358_);}
	.st4{fill:url(#SVGID_00000146496360835749347260000017014132797945551751_);}
	.st5{fill:url(#SVGID_00000165222407996732518100000015159611855276176548_);}
</style>
<g>
	<g>
		<path class="st0" d="M1428.4,605.5c11.6,0,22.2,5.3,29.2,13.6h22.3c-9.1-19.2-28.8-32.5-51.5-32.5c-31.3,0-56.8,25.3-56.8,56.8
			c0,31.3,25.5,56.8,56.8,56.8c22.7,0,42.2-13.3,51.4-32.5h-22.2c-7.1,8.3-17.6,13.6-29.2,13.6c-20.8,0-37.8-16.9-37.8-37.8
			C1390.6,622.4,1407.6,605.5,1428.4,605.5z"/>
		<path class="st0" d="M1571.4,586.7v47.8h-55.1v-27.7v-20.1c0,0-4.3-1-10.4-1c-6,0-10.3,1-10.4,1v113.6c0,0,4.4,1,10.4,1
			c6.1,0,10.4-1,10.4-1v-20.1v-27.7h55.1v47.8c0,0,4.4,1,10.4,1c6.1,0,10.4-1,10.4-1V586.7c0,0-4.3-1-10.4-1
			C1575.7,585.7,1571.4,586.7,1571.4,586.7z"/>
		<polygon class="st0" points="835.3,604.7 835.3,682 835.3,699.1 835.3,700.1 922.3,700.1 922.3,682 856.2,682 856.2,652.1 
			916.6,652.1 916.6,634 856.2,634 856.2,604.7 922.3,604.7 922.3,586.5 835.3,586.5 		"/>
		<polygon class="st0" points="1037.9,604.7 1037.9,682 1037.9,699.1 1037.9,700.1 1125,700.1 1125,682 1058.9,682 1058.9,652.1 
			1119.3,652.1 1119.3,634 1058.9,634 1058.9,604.7 1125,604.7 1125,586.5 1037.9,586.5 		"/>
		<path class="st0" d="M790.8,660.5c-6-4.7-11.2-5.6-11.1-6.8c0.1-1,2.9-0.5,7.9-2c15.4-4.5,24.5-16,24.5-31.2
			c0-26.7-18.5-33.9-45.1-33.9h-49v113.5c0,0,4.1,1,9.9,1c5.7,0,9.9-1,9.9-1V657h12.7c9.1,0,15.9,1.1,20.8,4.9
			c5.3,4,9.4,9.5,14.9,18.1c3.2,5,11.2,20.2,11.3,20.2c0,0,4.7,1,11.6,1c6.8,0,11.3-1.5,11.3-1.5
			C807.6,678.9,800.6,668.2,790.8,660.5z M763.8,640.1h-26v-36.9h29.5c17.1,0,25.1,3.4,25.1,17.3
			C792.4,635.3,780.9,640.1,763.8,640.1z"/>
		<path class="st0" d="M1339.3,660.5c-6-4.7-11.2-5.6-11.1-6.8c0.1-1,2.9-0.5,7.9-2c15.4-4.5,24.5-16,24.5-31.2
			c0-26.7-18.5-33.9-45.1-33.9h-49v113.5c0,0,4.1,1,9.9,1c5.7,0,9.9-1,9.9-1V657h12.7c9.1,0,15.9,1.1,20.8,4.9
			c5.3,4,9.4,9.5,14.9,18.1c3.2,5,11.2,20.2,11.3,20.2c0,0,4.7,1,11.6,1c6.8,0,11.3-1.5,11.3-1.5
			C1356.1,678.9,1349.1,668.2,1339.3,660.5z M1312.3,640.1h-26v-36.9h29.5c17.1,0,25.1,3.4,25.1,17.3
			C1340.9,635.3,1329.4,640.1,1312.3,640.1z"/>
		<path class="st0" d="M1179.4,586.2c-16.6,35.2-30.9,73.4-42.9,113.9c0,0,4.1,1,10.2,1c5.8,0,9.9-1,10-1
			c3.7-13.2,9.8-31.1,9.8-31.1s15.7-1.8,26.2-1c12.4,1,18.7,2.8,24.6,5.4c2.6,1.1,3.9,2,4.6,4.1c1.4,4.3,3.8,12.4,6.8,22.5
			c0,0,4.2,1,10.2,1c6.1,0,10-1,10-1c-11.7-40.5-25.8-78.7-42.7-113.9H1179.4z M1194.9,653.6c-8.4,0-18.3,1.4-24.2,3.4
			c7-21.6,18.4-48.2,20.4-52.6c0.6-1.3,1.1-1.7,1.7-1.7c0.6,0,1.1,0.3,1.6,1.4c2.1,4.7,13.5,31.3,20.2,51.3
			C1210,654.7,1203.6,653.6,1194.9,653.6z"/>
		<path class="st0" d="M755.9,436.2c-16.6,35.2-30.9,73.4-42.9,113.9c0,0,4.1,1,10.2,1c5.8,0,9.9-1,10-1C737,536.9,743,519,743,519
			s15.7-1.8,26.2-1c12.4,1,18.7,2.8,24.6,5.4c2.6,1.1,3.9,2,4.6,4.1c1.4,4.3,3.8,12.4,6.8,22.5c0,0,4.2,1,10.2,1c6.1,0,10-1,10-1
			c-11.7-40.5-25.8-78.7-42.7-113.9H755.9z M771.4,503.6c-8.4,0-18.3,1.4-24.2,3.4c7-21.6,18.4-48.2,20.4-52.6
			c0.6-1.3,1.1-1.7,1.7-1.7c0.6,0,1.1,0.3,1.6,1.4c2.1,4.7,13.5,31.3,20.2,51.3C786.6,504.7,780.2,503.6,771.4,503.6z"/>
		<path class="st0" d="M936.9,436.9c0,0-4-1-9.7-1c-5.6,0-9.7,1-9.7,1V519c-19.4-31.3-38.9-59.6-57.8-82.1c0,0-4-1-9.7-1
			c-5.6,0-9.7,1-9.7,1l0,113.2c0,0,4,1,9.7,1c5.6,0,9.6-1,9.7-1l0-87.7c20.7,28.5,40.1,57.8,57.6,87.7c0,0,4.1,1,9.9,1
			c5.7,0,9.8-1,9.8-1L936.9,436.9z"/>
		<path class="st0" d="M992.8,550.1c0,0,4.3,1,10.5,1c6.1,0,10.5-1,10.5-1v-95.8h41V436H951.8v18.2h41V550.1z"/>
		<path class="st0" d="M1011.3,639.4c-9.1-6.3-20.7-9-31.1-10.4c-10.2-1.4-20.2-3.8-21.9-8.6c-1.1-3.1,0.6-10.2,7.7-13.5
			c9.7-4.6,33-3.6,40.3,9.9c0,0,4.2-1.1,9.3-3.9c5.2-2.8,8.3-5.7,8.3-5.7c-13.2-24.1-48.1-27-66.4-18.4c-16.6,7.8-22.3,25.9-18,38.2
			c5.5,15.8,22.3,18.9,37.2,21.7c8.7,1.6,17.7,3.3,23.3,7.2c6.1,4.2,5.6,12.6,1.6,18.4c-2.6,3.8-11.1,7.4-21.9,6.7
			c-12.8-0.8-23.4-6.8-28.4-16.3c0,0-4.1,1-9.2,3.7c-5.3,2.8-8.4,5.6-8.4,5.6c8.2,15.7,25,25.7,44.9,26.9c1.3,0.1,2.6,0.1,3.8,0.1
			c15.6,0,29-5.8,35.7-15.5C1028.9,669.8,1025.9,649.6,1011.3,639.4z"/>
	</g>
	<g>
		<linearGradient id="SVGID_1_" gradientUnits="userSpaceOnUse" x1="457.2844" y1="610.6763" x2="649.5578" y2="517.8715">
			<stop  offset="0" style="stop-color:#0071FF"/>
			<stop  offset="0.2504" style="stop-color:#0080FF"/>
			<stop  offset="1" style="stop-color:#00A8FF"/>
		</linearGradient>
		<path class="st1" d="M660.5,600.1c-0.6,2.9-1.4,5.8-2.2,8.6c-1.3,4.3-2.8,8.4-4.5,12.4c-8.4,17.4-21.9,30.9-39.6,37.3
			c-34.5,12.6-74.2-5.6-98.6-41.6c-4.6-6.7-13-9.6-20.7-6.8l-22.8,8.3c-5.5,2-11.6-0.6-13.9-5.9c-1.1-2.5-2.1-5-3-7.6
			c-21.9-60.3,5.1-125.5,60.5-145.6c27.2-9.9,56.2-7.1,81.2,5.5c1.5,0.8,3.1,1.6,4.6,2.4c1.5,0.8,3,1.7,4.5,2.6c0,0,0,0,0,0
			c1.5,0.9,2.9,1.9,4.3,2.9c5.7,3.9,11.2,8.4,16.2,13.4c1.3,1.2,2.5,2.5,3.7,3.8c2.4,2.6,4.8,5.4,7,8.3c1.1,1.4,2.2,2.9,3.2,4.4
			c1.1,1.5,2.1,3,3.1,4.6c0.6,0.9,1.1,1.8,1.7,2.7c0.7,1.2,1.5,2.5,2.2,3.7c1.1,1.9,2.1,3.8,3,5.8c0.4,0.8,0.8,1.7,1.2,2.6
			c0.4,0.8,0.8,1.7,1.1,2.5c0,0,0,0.1,0,0.1c0.4,0.8,0.7,1.7,1.1,2.5c0,0,0,0,0,0c0,0.1,0.1,0.2,0.1,0.3c0.1,0.2,0.1,0.3,0.2,0.6
			c0.2,0.5,0.4,1,0.6,1.5c0.1,0.2,0.2,0.4,0.2,0.6c-16.2-42.1-56.2-66.1-90.1-53.7c-13,4.7-23.2,14.1-30.1,26.3c0,0,0,0,0,0
			c-11.4,20.1-13.5,47.7-3.8,74.6c2.2,6,4.8,11.6,7.9,16.8c10.7,18.3,26.1,31.6,42.9,37.9c13.1,4.9,27,5.5,40,0.8
			c33.9-12.3,49.1-56.2,34.6-98.7c0.1,0.2,0.1,0.3,0.2,0.5l0,0.1c0.1,0.3,0.2,0.6,0.3,0.9c0,0.1,0.1,0.2,0.1,0.3
			c0.1,0.2,0.2,0.5,0.2,0.7c0.1,0.2,0.1,0.4,0.2,0.6c0,0,0,0.1,0,0.1c0.1,0.2,0.1,0.4,0.2,0.6c0.1,0.2,0.1,0.3,0.2,0.5
			c0.4,1.2,0.7,2.3,1,3.5c0.4,1.6,0.8,3.1,1.2,4.7c0.5,2.3,1,4.7,1.4,7C664.1,569.5,663.7,585.3,660.5,600.1z"/>
		
			<linearGradient id="SVGID_00000168093962502385239100000012379937974557886086_" gradientUnits="userSpaceOnUse" x1="581.3063" y1="480.4583" x2="635.2053" y2="626.8782">
			<stop  offset="0" style="stop-color:#005AFF"/>
			<stop  offset="0.2" style="stop-color:#0080FF"/>
			<stop  offset="1" style="stop-color:#00A8FF;stop-opacity:0.5"/>
		</linearGradient>
		<path style="fill:url(#SVGID_00000168093962502385239100000012379937974557886086_);" d="M621.7,632.7c-13,4.7-26.9,4.1-40-0.8
			c6.5,0.8,13,0.1,19.1-2.1c28-10.2,39.5-49.3,25.6-87.4c-13.9-38.1-47.8-60.7-75.8-50.5c-6.2,2.2-11.5,5.9-16,10.6
			c6.9-12.2,17.1-21.5,30.1-26.3c34-12.4,74,11.6,90.1,53.7c0,0,0,0.1,0,0.1c0.2,0.6,0.4,1.1,0.6,1.7c0.2,0.5,0.3,0.9,0.5,1.4
			c0.1,0.1,0.1,0.3,0.2,0.4c0,0.1,0.1,0.2,0.1,0.3C670.8,576.5,655.6,620.4,621.7,632.7z"/>
		
			<linearGradient id="SVGID_00000025406358021345023110000001575578143689722523_" gradientUnits="userSpaceOnUse" x1="328.2013" y1="653.2375" x2="600.359" y2="554.1802">
			<stop  offset="0" style="stop-color:#0071FF"/>
			<stop  offset="0.2504" style="stop-color:#0080FF"/>
			<stop  offset="1" style="stop-color:#00A8FF"/>
		</linearGradient>
		<path style="fill:url(#SVGID_00000025406358021345023110000001575578143689722523_);" d="M636.5,661.6c1.7-1.3,4,0.5,3.2,2.5
			c-19,48.8-66.1,83.6-121.4,84.5c-0.7,0-1.5,0-2.2,0c-41.2,0-78-18.8-102.3-48.2c-1.6-1.9-4.2-2.7-6.6-1.8l-4.8,1.7
			c-2.4,0.9-3.2,3.9-1.5,5.9c5.8,6.7,11.3,12.1,18.3,18c3,2.6,2.1,7.4-1.6,8.8l-2.1,0.8c-3.3,1.2-7.1,0.8-10-1.3
			c-9.8-6.8-18.9-14.7-26.9-23.5c-4.7-5.2-9.1-10.6-13.2-16.4c-2.4-3.4-6.7-4.7-10.5-3.3l0,0c-5.1,1.9-10.9-0.3-13.5-5.1
			c-13.4-24.5-20.9-52.7-20.7-82.6c0.6-94.4,77.3-169.7,171.7-168.7c13.4,0.1,26.5,1.8,38.9,4.9c2.5,0.6,2.1,4.3-0.5,4.4
			c-1.8,0.1-3.5,0.2-5.3,0.3c-9.3,0.7-18.6,2.6-27.8,5.8c-0.6,0.2-1.3,0.4-1.9,0.7c-32.5,11.8-56.5,37.3-68.6,68.6
			c-0.8,2-1.5,4.1-2.2,6.2c-9.3,28-9.4,60.2,1.9,91.2c4.6,12.7,10.8,24.3,18.3,34.7c3.8,5.4,10.8,7.5,17,5.2l28.8-10.5
			c5.4-2,11.5-0.6,15.5,3.5c27.7,28.6,68.5,40.5,105.8,26.9C621.3,671.4,629.3,667,636.5,661.6L636.5,661.6z"/>
		
			<linearGradient id="SVGID_00000083775988747862287590000017275827881379843984_" gradientUnits="userSpaceOnUse" x1="902.4326" y1="-2050.4158" x2="904.2145" y2="-2139.3633" gradientTransform="matrix(0.8885 -0.4589 0.4589 0.8885 557.0984 2701.9697)">
			<stop  offset="0" style="stop-color:#0071FF"/>
			<stop  offset="0.2504" style="stop-color:#0080FF"/>
			<stop  offset="1" style="stop-color:#00A8FF"/>
		</linearGradient>
		<path style="fill:url(#SVGID_00000083775988747862287590000017275827881379843984_);" d="M410.1,467.1l4.1,5.3
			c2.4,3.1,6.6,4,10.1,2.2c1.7-0.9,3-2.3,3.7-4c0.7-1.7,0.8-3.5,0.3-5.4c0,0,0,0,0,0c-3.3-8.6-7.7-21.7-12.2-36.4
			c-5.1-16.8-11.4-42.2-11.4-42.2c-2.9-9.6-11.4-16.5-21.4-16.9c-4-0.2-8.1,0.7-11.9,2.6c-8.5,4.4-13.6,13.4-13.2,22.3
			c0.2,4.6,2.2,9,5.2,12.5C388.2,436.5,410.1,467.1,410.1,467.1z"/>
		
			<linearGradient id="SVGID_00000000219807066066054830000002741399504774705570_" gradientUnits="userSpaceOnUse" x1="5865.1294" y1="793.1506" x2="5866.1987" y2="739.7767" gradientTransform="matrix(-0.8404 -0.542 -0.542 0.8404 5935.562 2956.1724)">
			<stop  offset="0" style="stop-color:#0071FF"/>
			<stop  offset="0.2504" style="stop-color:#0080FF"/>
			<stop  offset="1" style="stop-color:#00A8FF"/>
		</linearGradient>
		<path style="fill:url(#SVGID_00000000219807066066054830000002741399504774705570_);" d="M581.5,444.7l-2.8,2.9
			c-1.6,1.7-4.2,2-6.1,0.7c-1-0.6-1.7-1.6-2-2.6c-0.3-1-0.3-2.2,0.1-3.2c0,0,0,0,0,0c2.4-4.9,5.8-12.5,9.4-21
			c4-9.7,9.3-24.5,9.3-24.5c2.3-5.6,7.8-9.2,13.8-8.9c2.4,0.1,4.8,0.9,6.9,2.3c4.8,3.1,7.4,8.8,6.6,14.1c-0.4,2.7-1.8,5.2-3.8,7.2
			C596.3,427.6,581.5,444.7,581.5,444.7z"/>
	</g>
</g>
</svg>
